# File created by Blade
# Date/Time:  Wed Jan 21 15:55:51 2015
# Frame Rate: 120.000 fps
#------------------------------------------------------
:FULLY-SPECIFIED
:DEGREES
1188
root 18.819202 35.553743 -18.907326 -175.796861 -3.013426 -183.400274
Spine 3.741314 15.284853 -6.835554
Head 14.948447 -11.008142 0.984897
LeftShoulder -6.508282 -15.254447 0.340799
LeftArm -20.608308 15.330074 -76.787912
LeftForeArm 10.566715 0.000000 39.536916
LeftHand -0.180566 -0.000000 -4.004156
LeftHandThumb1 -26.253704 0.000000 33.147579
RightShoulder -9.692293 -13.049308 11.293265
RightArm 21.352280 -9.872625 68.498217
RightForeArm -29.041063 -0.000000 20.998614
RightHand 1.421326 -0.000000 -6.865932
RightHandThumb1 -24.326973 -0.000000 -32.862282
LeftUpLeg -1.851485 7.032933 -1.803754
LeftLeg -2.030615 -0.000000 0.000000
LeftFoot -16.922862 24.903445 -14.315124
LeftToeBase 24.203970 -0.000000 -0.000000
RightUpLeg -3.579419 -20.959261 -11.575733
RightLeg 4.523342 -0.000000 -0.000000
RightFoot -19.608207 -34.870794 15.447159
RightToeBase 5.873445 -0.000000 -0.000000
1189
root 18.695228 35.525471 -18.967624 -175.764375 -3.079172 -183.398574
Spine 3.338174 14.893761 -6.889441
Head 14.812749 -10.870425 1.024720
LeftShoulder -6.469561 -15.331255 0.154256
LeftArm -19.838398 16.321612 -76.002763
LeftForeArm 11.385379 -0.000000 36.919911
LeftHand 0.096014 0.000000 -4.671600
LeftHandThumb1 -26.253704 0.000000 33.147579
RightShoulder -9.893238 -13.008636 11.326681
RightArm 20.982133 -9.325733 68.586537
RightForeArm -29.914578 -0.000000 20.242033
RightHand 1.439718 -0.000000 -6.193445
RightHandThumb1 -24.326973 -0.000000 -32.862282
LeftUpLeg -1.617958 7.434926 -2.031181
LeftLeg -2.376215 -0.000000 0.000000
LeftFoot -17.092218 24.637985 -13.880696
LeftToeBase 24.585281 -0.000000 -0.000000
RightUpLeg -3.488832 -21.139980 -11.795879
RightLeg 4.540893 -0.000000 -0.000000
RightFoot -19.468471 -34.804434 15.454726
RightToeBase 5.422687 -0.000000 -0.000000
1190
root 18.561939 35.495145 -19.041548 -175.853508 -3.160225 -183.417284
Spine 3.076498 14.365664 -6.922419
Head 14.626749 -10.647363 1.157585
LeftShoulder -6.609087 -15.373573 0.024747
LeftArm -18.942428 17.279277 -75.201005
LeftForeArm 11.980694 -0.000000 34.203844
LeftHand 0.205978 -0.000000 -5.190783
LeftHandThumb1 -26.253704 0.000000 33.147579
RightShoulder -9.985564 -12.940461 11.327273
RightArm 20.605959 -8.857789 68.499754
RightForeArm -30.610300 -0.000000 19.492055
RightHand 1.319908 -0.000000 -5.559755
RightHandThumb1 -24.326973 -0.000000 -32.862282
LeftUpLeg -1.212737 7.711009 -2.280435
LeftLeg -2.777325 -0.000000 0.000000
LeftFoot -17.266400 24.546396 -13.424606
LeftToeBase 24.930680 -0.000000 -0.000000
RightUpLeg -3.218952 -21.311699 -12.117233
RightLeg 4.509929 -0.000000 -0.000000
RightFoot -19.322012 -34.755371 15.250521
RightToeBase 5.968185 -0.000000 -0.000000
1191
root 18.432715 35.465969 -19.103306 -175.934408 -3.026787 -183.419789
Spine 2.823491 14.067290 -6.948875
Head 14.379913 -10.481620 1.259641
LeftShoulder -6.647419 -15.531634 -0.145121
LeftArm -18.149357 18.132497 -74.334098
LeftForeArm 12.399811 -0.000000 31.525745
LeftHand 0.184853 -0.000000 -5.648453
LeftHandThumb1 -26.253704 0.000000 33.147579
RightShoulder -10.090316 -12.867708 11.357059
RightArm 20.289657 -8.306043 68.334251
RightForeArm -31.204259 -0.000000 18.704500
RightHand 1.308803 -0.000000 -4.759952
RightHandThumb1 -24.326973 -0.000000 -32.862282
LeftUpLeg -0.829523 8.247447 -2.524241
LeftLeg -3.161253 -0.000000 0.000000
LeftFoot -17.362769 24.452989 -12.786130
LeftToeBase 25.317533 -0.000000 -0.000000
RightUpLeg -3.157403 -21.221650 -12.393255
RightLeg 4.685210 -0.000000 -0.000000
RightFoot -19.241710 -34.742014 15.163771
RightToeBase 6.091869 -0.000000 -0.000000
1192
root 18.299594 35.439972 -19.170067 -176.084376 -2.870288 -183.447019
Spine 2.665159 13.756553 -6.990959
Head 14.069389 -10.266546 1.394923
LeftShoulder -6.678653 -15.758032 -0.294887
LeftArm -17.420156 18.903659 -73.435766
LeftForeArm 12.703935 -0.000000 28.838474
LeftHand 0.168403 -0.000000 -6.308735
LeftHandThumb1 -26.253704 0.000000 33.147579
RightShoulder -10.213980 -12.756173 11.436878
RightArm 20.019523 -7.728224 68.026958
RightForeArm -31.703998 -0.000000 17.878625
RightHand 1.297970 0.000000 -3.475123
RightHandThumb1 -24.326973 -0.000000 -32.862282
LeftUpLeg -0.374107 8.704678 -2.776964
LeftLeg -3.511791 -0.000000 0.000000
LeftFoot -17.438984 24.424567 -12.179774
LeftToeBase 25.705852 -0.000000 -0.000000
RightUpLeg -3.008169 -21.105694 -12.734434
RightLeg 4.844626 -0.000000 -0.000000
RightFoot -19.110165 -34.695699 15.025949
RightToeBase 5.848704 -0.000000 -0.000000
1193
root 18.168004 35.419409 -19.238911 -176.336270 -2.643218 -183.471809
Spine 2.654142 13.492058 -6.998309
Head 13.658525 -10.037594 1.571845
LeftShoulder -6.749556 -15.953525 -0.475319
LeftArm -16.568702 19.690453 -72.441660
LeftForeArm 12.679700 -0.000000 26.089748
LeftHand 0.337882 -0.000000 -7.114924
LeftHandThumb1 -26.253704 0.000000 33.147579
RightShoulder -10.291669 -12.653511 11.490741
RightArm 19.862848 -6.952656 67.722233
RightForeArm -32.080663 0.000000 16.939411
RightHand 1.308182 0.000000 -2.754451
RightHandThumb1 -24.326973 -0.000000 -32.862282
LeftUpLeg 0.233587 9.148730 -3.000175
LeftLeg -3.940172 -0.000000 0.000000
LeftFoot -17.485348 24.461073 -11.760538
LeftToeBase 25.890119 -0.000000 -0.000000
RightUpLeg -2.799664 -21.009182 -13.102868
RightLeg 5.031485 -0.000000 -0.000000
RightFoot -18.856822 -34.535653 14.720218
RightToeBase 5.341347 -0.000000 -0.000000
1194
root 18.039800 35.405353 -19.306537 -176.589185 -2.409540 -183.484224
Spine 2.652575 13.223881 -6.999240
Head 13.247316 -9.890962 1.782458
LeftShoulder -6.792021 -16.183629 -0.639957
LeftArm -15.782126 20.357926 -71.425627
LeftForeArm 12.760058 -0.000000 23.367776
LeftHand 0.361428 0.000000 -7.553040
LeftHandThumb1 -26.253704 0.000000 33.147579
RightShoulder -10.381199 -12.616693 11.627469
RightArm 19.703243 -6.354881 67.146592
RightForeArm -32.081346 -0.000000 16.241672
RightHand 1.292370 -0.000000 -1.463652
RightHandThumb1 -24.326973 -0.000000 -32.862282
LeftUpLeg 0.821760 9.522044 -3.178287
LeftLeg -4.315613 -0.000000 0.000000
LeftFoot -17.523548 24.430685 -11.487352
LeftToeBase 25.993202 -0.000000 -0.000000
RightUpLeg -2.610911 -20.875143 -13.449862
RightLeg 5.245255 -0.000000 -0.000000
RightFoot -18.529760 -34.300503 14.395338
RightToeBase 5.505860 -0.000000 -0.000000
1195
root 17.915221 35.398765 -19.377293 -176.900299 -2.107458 -183.473612
Spine 2.715046 13.010428 -6.970646
Head 12.844863 -9.711958 1.985718
LeftShoulder -6.804090 -16.430167 -0.771941
LeftArm -15.024785 20.806198 -70.377140
LeftForeArm 12.786053 -0.000000 20.642736
LeftHand 0.361998 -0.000000 -8.169132
LeftHandThumb1 -26.253704 0.000000 33.147579
RightShoulder -10.440306 -12.609514 11.775045
RightArm 19.609421 -5.702800 66.503909
RightForeArm -31.872263 -0.000000 15.514819
RightHand 1.058932 -0.000000 -0.394313
RightHandThumb1 -24.326973 -0.000000 -32.862282
LeftUpLeg 1.496957 9.859124 -3.289337
LeftLeg -4.713347 -0.000000 0.000000
LeftFoot -17.519304 24.359235 -11.326622
LeftToeBase 26.015876 -0.000000 -0.000000
RightUpLeg -2.404765 -20.814901 -13.775339
RightLeg 5.479272 -0.000000 -0.000000
RightFoot -18.049865 -34.065432 13.796461
RightToeBase 5.376350 -0.000000 -0.000000
1196
root 17.796096 35.398238 -19.443142 -177.144463 -1.790950 -183.395653
Spine 2.696606 12.800847 -6.863388
Head 12.453002 -9.477105 2.182825
LeftShoulder -6.787480 -16.630456 -0.910518
LeftArm -14.324904 21.096641 -69.306005
LeftForeArm 12.757416 -0.000000 18.053714
LeftHand 0.311734 -0.000000 -8.669270
LeftHandThumb1 -26.253704 0.000000 33.147579
RightShoulder -10.507281 -12.587129 11.851212
RightArm 19.492994 -4.944629 65.860341
RightForeArm -31.367195 -0.000000 14.731609
RightHand 1.061252 -0.000000 0.760624
RightHandThumb1 -24.326973 -0.000000 -32.862282
LeftUpLeg 2.064174 9.957605 -3.313011
LeftLeg -5.026907 -0.000000 0.000000
LeftFoot -17.580543 24.388009 -11.272294
LeftToeBase 26.026703 -0.000000 -0.000000
RightUpLeg -2.310966 -20.747152 -13.975759
RightLeg 5.757860 -0.000000 -0.000000
RightFoot -17.607573 -33.783512 13.335665
RightToeBase 4.707515 -0.000000 -0.000000
1197
root 17.692354 35.404064 -19.493175 -177.319365 -1.423521 -183.276529
Spine 2.631006 12.656343 -6.764821
Head 12.037138 -9.292117 2.429033
LeftShoulder -6.715702 -16.770165 -0.956243
LeftArm -13.572296 21.100373 -68.205175
LeftForeArm 12.524938 0.000000 15.533384
LeftHand 0.339012 -0.000000 -9.289710
LeftHandThumb1 -26.253704 0.000000 33.147579
RightShoulder -10.561667 -12.626291 11.919630
RightArm 19.439436 -4.235759 65.202998
RightForeArm -30.916384 0.000000 14.029695
RightHand 0.761284 -0.000000 1.625832
RightHandThumb1 -24.326973 -0.000000 -32.862282
LeftUpLeg 2.520548 9.972515 -3.281761
LeftLeg -5.311484 -0.000000 0.000000
LeftFoot -17.646055 24.492695 -11.345904
LeftToeBase 26.010671 -0.000000 -0.000000
RightUpLeg -2.348995 -20.482657 -14.050790
RightLeg 6.035538 -0.000000 -0.000000
RightFoot -17.144106 -33.779237 12.869868
RightToeBase 4.471593 -0.000000 -0.000000
1198
root 17.589614 35.414571 -19.549272 -177.431467 -0.949194 -183.086486
Spine 2.441179 12.610134 -6.570743
Head 11.673989 -9.107227 2.578708
LeftShoulder -6.629889 -16.859291 -0.977714
LeftArm -12.942467 20.999558 -67.156705
LeftForeArm 12.414448 -0.000000 13.225050
LeftHand 0.101952 -0.000000 -9.691772
LeftHandThumb1 -26.253704 0.000000 33.147579
RightShoulder -10.701821 -12.740990 11.942582
RightArm 19.431626 -3.510798 64.512456
RightForeArm -30.406492 0.000000 13.354553
RightHand 0.538504 -0.000000 2.653309
RightHandThumb1 -24.326973 -0.000000 -32.862282
LeftUpLeg 2.939427 9.954755 -3.189334
LeftLeg -5.616535 -0.000000 0.000000
LeftFoot -17.719574 24.704476 -11.476958
LeftToeBase 25.821963 -0.000000 -0.000000
RightUpLeg -2.498771 -20.223921 -14.012533
RightLeg 6.312672 -0.000000 -0.000000
RightFoot -16.647053 -33.684659 12.487791
RightToeBase 3.987909 -0.000000 -0.000000
1199
root 17.485366 35.429836 -19.605490 -177.485284 -0.543537 -182.870608
Spine 2.159566 12.477919 -6.317932
Head 11.407494 -8.906161 2.687275
LeftShoulder -6.554234 -16.856145 -0.991310
LeftArm -12.363065 20.643331 -66.058268
LeftForeArm 12.225628 -0.000000 11.183157
LeftHand -0.269392 -0.000000 -9.968899
LeftHandThumb1 -26.253704 0.000000 33.147579
RightShoulder -10.794501 -12.983257 11.905995
RightArm 19.406835 -2.637468 63.824109
RightForeArm -29.567110 0.000000 12.843261
RightHand 0.195723 -0.000000 3.645727
RightHandThumb1 -24.326973 -0.000000 -32.862282
LeftUpLeg 3.250701 9.664679 -3.093518
LeftLeg -5.837181 -0.000000 0.000000
LeftFoot -17.864382 25.129723 -11.704139
LeftToeBase 25.704458 -0.000000 -0.000000
RightUpLeg -2.687252 -20.022165 -13.933137
RightLeg 6.634135 -0.000000 -0.000000
RightFoot -16.094472 -33.551455 12.035543
RightToeBase 3.185204 -0.000000 -0.000000
